<svg width="25" height="24" viewBox="0 0 25 24" fill="none" xmlns="http://www.w3.org/2000/svg">
<g clip-path="url(#clip0_2127_10101)">
<path d="M15.748 6.22919L9.33594 6.11768L9.28606 17.7711L15.6982 17.8826L15.748 6.22919Z" fill="#FF5F00"/>
<path d="M9.63528 11.9742C9.64526 9.60403 10.7589 7.52099 12.4627 6.19024C11.2189 5.17922 9.64607 4.55409 7.92756 4.52418C3.85632 4.45332 0.548526 7.71429 0.531253 11.8158C0.51398 15.9173 3.79382 19.2929 7.86506 19.3638C9.58357 19.3937 11.1614 18.8234 12.4135 17.8558C10.7211 16.4866 9.6253 14.3445 9.63528 11.9742Z" fill="#EB001B"/>
<path d="M24.5025 12.1842C24.4853 16.2857 21.1775 19.5466 17.1062 19.4758C15.3877 19.4459 13.8149 18.8207 12.5711 17.8097C14.2954 16.4793 15.3885 14.3959 15.3985 12.0257C15.4085 9.6555 14.3126 7.53399 12.6203 6.14414C13.8724 5.17656 15.4502 4.60627 17.1687 4.63618C21.24 4.70704 24.5197 8.10328 24.5025 12.1842Z" fill="#F79E1B"/>
</g>
<defs>
<clipPath id="clip0_2127_10101">
<rect width="24" height="24" fill="white" transform="translate(0.5)"/>
</clipPath>
</defs>
</svg>
